HIERARCHY
ROOT Hips
{
    OFFSET 0.000000 0.000000 0.000000
    CHANNELS 6 Xposition Yposition Zposition Zrotation Yrotation Xrotation
    JOINT Chest
    {
        OFFSET 0.000000 1.634758 -0.000000
        CHANNELS 3 Zrotation Yrotation Xrotation
        JOINT Chest2
        {
            OFFSET 0.000000 2.197341 0.000000
            CHANNELS 3 Zrotation Yrotation Xrotation
            JOINT Neck
            {
                OFFSET 0.000000 0.961544 0.000000
                CHANNELS 3 Zrotation Yrotation Xrotation
                JOINT Head
                {
                    OFFSET 0.000000 0.632542 -0.032565
                    CHANNELS 3 Zrotation Yrotation Xrotation
                    End Site
                    {
                        OFFSET -0.000001 0.439502 2.922845
                    }
                }
            }
            JOINT LeftCollar
            {
                OFFSET 0.167536 0.778237 -0.168280
                CHANNELS 3 Zrotation Yrotation Xrotation
                JOINT LeftShoulder
                {
                    OFFSET 0.831514 -0.002900 0.006458
                    CHANNELS 3 Zrotation Yrotation Xrotation
                    JOINT LeftElbow
                    {
                        OFFSET 2.272872 -0.026639 0.059314
                        CHANNELS 3 Zrotation Yrotation Xrotation
                        JOINT LeftWrist
                        {
                            OFFSET 2.081982 -0.024402 0.054333
                            CHANNELS 3 Zrotation Yrotation Xrotation
                            JOINT LeftHandThumb1
                            {
                                OFFSET 0.218903 -0.128645 0.283837
                                CHANNELS 3 Zrotation Yrotation Xrotation
                                JOINT LeftHandThumb2
                                {
                                    OFFSET 0.137157 -0.025101 0.077902
                                    CHANNELS 3 Zrotation Yrotation Xrotation
                                    JOINT LeftHandThumb3
                                    {
                                        OFFSET 0.179476 -0.016590 -0.032443
                                        CHANNELS 3 Zrotation Yrotation Xrotation
                                        End Site
                                        {
                                            OFFSET 0.253883 0.078641 0.034574
                                        }
                                    }
                                }
                            }
                            JOINT LeftHandFore1
                            {
                                OFFSET 0.767340 -0.016076 0.196678
                                CHANNELS 3 Zrotation Yrotation Xrotation
                                JOINT LeftHandFore2
                                {
                                    OFFSET 0.157397 -0.148744 0.009828
                                    CHANNELS 3 Zrotation Yrotation Xrotation
                                    JOINT LeftHandFore3
                                    {
                                        OFFSET -0.124998 -0.032773 -0.008021
                                        CHANNELS 3 Zrotation Yrotation Xrotation
                                        End Site
                                        {
                                            OFFSET -0.151567 0.119899 -0.004298
                                        }
                                    }
                                }
                            }
                            JOINT LeftHandMiddle1
                            {
                                OFFSET 0.709887 -0.008320 0.018526
                                CHANNELS 3 Zrotation Yrotation Xrotation
                                JOINT LeftHandMiddle2
                                {
                                    OFFSET 0.075372 -0.233007 0.009507
                                    CHANNELS 3 Zrotation Yrotation Xrotation
                                    JOINT LeftHandMiddle3
                                    {
                                        OFFSET -0.143120 -0.029991 0.000522
                                        CHANNELS 3 Zrotation Yrotation Xrotation
                                        End Site
                                        {
                                            OFFSET -0.136463 0.192333 -0.004016
                                        }
                                    }
                                }
                            }
                            JOINT LeftHandRing1
                            {
                                OFFSET 0.743817 -0.005823 -0.153668
                                CHANNELS 3 Zrotation Yrotation Xrotation
                                JOINT LeftHandRing2
                                {
                                    OFFSET 0.001667 -0.352614 0.019841
                                    CHANNELS 3 Zrotation Yrotation Xrotation
                                    JOINT LeftHandRing3
                                    {
                                        OFFSET -0.131382 -0.035009 0.010889
                                        CHANNELS 3 Zrotation Yrotation Xrotation
                                        End Site
                                        {
                                            OFFSET -0.058500 0.104739 -0.005215
                                        }
                                    }
                                }
                            }
                            JOINT LeftHandLittle1
                            {
                                OFFSET 0.689408 -0.053302 -0.308304
                                CHANNELS 3 Zrotation Yrotation Xrotation
                                JOINT LeftHandLittle2
                                {
                                    OFFSET -0.024854 -0.193474 0.002058
                                    CHANNELS 3 Zrotation Yrotation Xrotation
                                    JOINT LeftHandLittle3
                                    {
                                        OFFSET -0.119560 -0.007710 -0.011929
                                        CHANNELS 3 Zrotation Yrotation Xrotation
                                        End Site
                                        {
                                            OFFSET -0.120473 0.145456 -0.024846
                                        }
                                    }
                                }
                            }
                        }
                    }
                }
            }
            JOINT RightCollar
            {
                OFFSET -0.167536 0.778237 -0.168280
                CHANNELS 3 Zrotation Yrotation Xrotation
                JOINT RightShoulder
                {
                    OFFSET -0.831514 -0.002900 0.006457
                    CHANNELS 3 Zrotation Yrotation Xrotation
                    JOINT RightElbow
                    {
                        OFFSET -2.272872 -0.026639 0.059313
                        CHANNELS 3 Zrotation Yrotation Xrotation
                        JOINT RightWrist
                        {
                            OFFSET -2.081982 -0.024402 0.054331
                            CHANNELS 3 Zrotation Yrotation Xrotation
                            JOINT RightHandThumb1
                            {
                                OFFSET -0.218911 -0.128571 0.283837
                                CHANNELS 3 Zrotation Yrotation Xrotation
                                JOINT RightHandThumb2
                                {
                                    OFFSET -0.137157 -0.025101 0.077902
                                    CHANNELS 3 Zrotation Yrotation Xrotation
                                    JOINT RightHandThumb3
                                    {
                                        OFFSET -0.111903 -0.136876 0.047771
                                        CHANNELS 3 Zrotation Yrotation Xrotation
                                        End Site
                                        {
                                            OFFSET -0.127449 -0.146557 0.184701
                                        }
                                    }
                                }
                            }
                            JOINT RightHandFore1
                            {
                                OFFSET -0.767344 -0.015991 0.196679
                                CHANNELS 3 Zrotation Yrotation Xrotation
                                JOINT RightHandFore2
                                {
                                    OFFSET -0.157433 -0.148711 0.009838
                                    CHANNELS 3 Zrotation Yrotation Xrotation
                                    JOINT RightHandFore3
                                    {
                                        OFFSET 0.122706 -0.031613 -0.026567
                                        CHANNELS 3 Zrotation Yrotation Xrotation
                                        End Site
                                        {
                                            OFFSET 0.149969 0.120724 -0.017373
                                        }
                                    }
                                }
                            }
                            JOINT RightHandMiddle1
                            {
                                OFFSET -0.709887 -0.008302 0.018525
                                CHANNELS 3 Zrotation Yrotation Xrotation
                                JOINT RightHandMiddle2
                                {
                                    OFFSET -0.075348 -0.233011 0.009507
                                    CHANNELS 3 Zrotation Yrotation Xrotation
                                    JOINT RightHandMiddle3
                                    {
                                        OFFSET 0.142681 -0.030282 -0.010470
                                        CHANNELS 3 Zrotation Yrotation Xrotation
                                        End Site
                                        {
                                            OFFSET 0.135910 0.191954 -0.017681
                                        }
                                    }
                                }
                            }
                            JOINT RightHandRing1
                            {
                                OFFSET -0.743819 -0.005785 -0.153669
                                CHANNELS 3 Zrotation Yrotation Xrotation
                                JOINT RightHandRing2
                                {
                                    OFFSET -0.001692 -0.352614 0.019841
                                    CHANNELS 3 Zrotation Yrotation Xrotation
                                    JOINT RightHandRing3
                                    {
                                        OFFSET 0.131552 -0.035820 -0.003989
                                        CHANNELS 3 Zrotation Yrotation Xrotation
                                        End Site
                                        {
                                            OFFSET 0.058480 0.104749 -0.005286
                                        }
                                    }
                                }
                            }
                            JOINT RightHandLittle1
                            {
                                OFFSET -0.689403 -0.053298 -0.308303
                                CHANNELS 3 Zrotation Yrotation Xrotation
                                JOINT RightHandLittle2
                                {
                                    OFFSET 0.024848 -0.193478 0.002057
                                    CHANNELS 3 Zrotation Yrotation Xrotation
                                    JOINT RightHandLittle3
                                    {
                                        OFFSET 0.119912 -0.007457 0.007817
                                        CHANNELS 3 Zrotation Yrotation Xrotation
                                        End Site
                                        {
                                            OFFSET 0.121194 0.146016 0.016731
                                        }
                                    }
                                }
                            }
                        }
                    }
                }
            }
        }
    }
    JOINT LeftHip
    {
        OFFSET 0.685143 0.673822 -0.044491
        CHANNELS 3 Zrotation Yrotation Xrotation
        JOINT LeftKnee
        {
            OFFSET 0.085364 -3.750208 0.017676
            CHANNELS 3 Zrotation Yrotation Xrotation
            JOINT LeftAnkle
            {
                OFFSET 0.094583 -4.155206 0.019585
                CHANNELS 3 Zrotation Yrotation Xrotation
                JOINT LeftToe
                {
                    OFFSET -0.000000 -0.395925 0.621478
                    CHANNELS 3 Zrotation Yrotation Xrotation
                    End Site
                    {
                        OFFSET -0.000000 -0.077878 0.321152
                    }
                }
            }
        }
    }
    JOINT RightHip
    {
        OFFSET -0.685143 0.673822 -0.044492
        CHANNELS 3 Zrotation Yrotation Xrotation
        JOINT RightKnee
        {
            OFFSET -0.085364 -3.750208 0.017677
            CHANNELS 3 Zrotation Yrotation Xrotation
            JOINT RightAnkle
            {
                OFFSET -0.094583 -4.155206 0.019585
                CHANNELS 3 Zrotation Yrotation Xrotation
                JOINT RightToe
                {
                    OFFSET -0.000000 -0.395925 0.621478
                    CHANNELS 3 Zrotation Yrotation Xrotation
                    End Site
                    {
                        OFFSET -0.000000 -0.077878 0.321152
                    }
                }
            }
        }
    }
}
MOTION
Frames: 4
Frame Time: 0.033333
1.891934 8.355192 -8.854790 174.189972 -7.255707 -179.226059 -2.966531 -3.670002 -12.013905 -3.418202 0.902815 -2.771692 -7.254940 2.158546 12.697587 -0.337212 6.521806 26.321726 -6.115147 -7.029648 0.093394 -51.321991 9.282587 -18.614614 16.771830 -87.771904 -17.434265 -38.225155 -6.615705 -8.050752 0.000003 0.000014 0.000012 -42.232010 -15.311808 12.323910 -17.186420 19.231686 -8.254870 24.967623 0.563055 -7.876441 110.093155 2.686882 -9.108663 54.317490 -1.251014 -4.134176 45.889378 3.531468 3.874940 72.749611 1.977041 0.499530 52.691181 1.543321 0.014951 53.990856 -2.598142 8.188296 64.128128 6.103313 0.640064 63.966423 1.574858 6.259060 62.761585 14.172646 6.110260 38.745579 4.430696 2.019331 45.077354 4.418375 0.569985 0.922446 2.729094 -0.030497 79.528778 5.964281 -17.739759 -178.545532 31.241592 -179.600632 52.029583 15.351457 -38.159733 -0.000006 -0.000003 0.000000 -24.215530 -15.278290 -13.598733 -1.623211 -10.701702 2.431397 -53.203522 -6.963226 -3.000376 -128.427353 -12.667707 -13.570243 -57.897747 -1.601982 -10.995570 -75.597618 -1.972270 -0.835575 -104.585777 -6.545599 -1.908968 -69.091049 -4.011508 -2.618062 -82.719749 0.687805 1.972525 -81.334473 -3.350963 1.438001 -78.909767 -4.405036 -1.235280 -83.638161 1.405797 0.376591 -80.661545 3.470778 -7.536395 -71.005844 3.525920 -3.282923 9.873878 -13.543777 -16.434965 0.120330 0.547128 24.804785 -1.429512 1.965496 -10.684111 -0.000001 -0.000000 -0.000001 -19.508095 -1.020730 -9.850989 -0.163949 -0.633067 29.040333 -0.697785 0.057344 -18.370531 -0.000002 -0.000004 0.000005
1.873255 8.358111 -8.891515 173.154663 -6.390363 -179.089447 -2.385973 -4.453957 -13.304361 -3.590080 1.036811 -2.925647 3.210399 0.487123 10.944057 -0.173625 3.368750 23.195532 -6.065150 -7.220474 0.108449 -51.796417 9.001072 -19.082041 21.366217 -88.220154 -22.031601 -37.961922 -6.553960 -8.309603 0.000002 0.000002 0.000004 -42.232006 -15.311809 12.323908 -17.186424 19.231680 -8.254872 24.967623 0.563050 -7.876441 110.093147 2.686882 -9.108664 54.317493 -1.251016 -4.134175 45.889374 3.531466 3.874944 72.749619 1.977045 0.499529 52.691177 1.543321 0.014945 53.990868 -2.598145 8.188299 64.128128 6.103311 0.640061 63.966423 1.574858 6.259058 62.761585 14.172639 6.110262 38.745579 4.430697 2.019333 45.077358 4.418377 0.569987 0.813710 2.568429 -0.030587 78.793236 6.995603 -18.344147 -178.546783 31.089033 -179.603058 52.201706 14.790095 -39.854576 0.000000 0.000012 -0.000014 -24.215525 -15.278292 -13.598726 -1.623211 -10.701700 2.431399 -53.203526 -6.963214 -3.000391 -128.427353 -12.667704 -13.570240 -57.897747 -1.601987 -10.995577 -75.597626 -1.972265 -0.835593 -104.585777 -6.545600 -1.908975 -69.091057 -4.011501 -2.618058 -82.719757 0.687811 1.972510 -81.334480 -3.350966 1.437997 -78.909767 -4.405034 -1.235282 -83.638161 1.405806 0.376577 -80.661545 3.470777 -7.536395 -71.005844 3.525922 -3.282922 8.722714 -13.701318 -15.762326 0.117593 0.541166 24.516439 -0.849076 2.504843 -10.602669 0.000002 -0.000002 0.000001 -20.676649 -1.218746 -9.873925 -0.162099 -0.629720 28.872299 0.006597 0.971553 -18.407507 0.000001 0.000004 0.000002
1.872199 8.359230 -8.934972 172.753235 -5.509815 -179.041306 -2.127215 -4.754110 -14.511326 -3.643876 1.081287 -3.122275 9.734489 -0.355405 9.382514 -0.090678 1.760908 20.435020 -5.926460 -7.440849 0.111145 -55.143696 7.043063 -22.947519 40.604805 -88.987778 -41.275284 -37.732101 -6.499480 -8.524989 -0.000014 -0.000004 0.000002 -42.232010 -15.311806 12.323905 -17.186419 19.231682 -8.254872 24.967611 0.563044 -7.876451 110.093155 2.686877 -9.108664 54.317486 -1.251012 -4.134175 45.889362 3.531464 3.874937 72.749619 1.977045 0.499529 52.691181 1.543319 0.014943 53.990845 -2.598153 8.188293 64.128136 6.103312 0.640062 63.966423 1.574855 6.259062 62.761597 14.172644 6.110256 38.745579 4.430697 2.019331 45.077358 4.418375 0.569987 0.623213 3.429441 -0.030418 74.468582 11.831700 -16.198469 -178.489120 37.140129 -179.499695 52.224724 14.358539 -42.058510 -0.000006 0.000009 -0.000026 -24.215521 -15.278290 -13.598727 -1.623211 -10.701700 2.431400 -53.203522 -6.963221 -3.000396 -128.427353 -12.667705 -13.570242 -57.897747 -1.601987 -10.995570 -75.597618 -1.972286 -0.835594 -104.585770 -6.545599 -1.908976 -69.091049 -4.011507 -2.618057 -82.719749 0.687801 1.972515 -81.334480 -3.350967 1.437999 -78.909767 -4.405036 -1.235279 -83.638168 1.405797 0.376575 -80.661545 3.470779 -7.536389 -71.005852 3.525920 -3.282922 8.265027 -13.874298 -15.242596 0.118243 0.542590 24.585333 -0.264977 3.116580 -10.687035 -0.000001 -0.000002 0.000006 -21.121389 -1.383830 -9.757354 -0.157711 -0.621701 28.470661 0.593841 1.830023 -18.329758 -0.000000 0.000001 0.000004
1.899783 8.356827 -8.985964 173.376846 -4.632888 -179.143768 -5.107760 -5.040666 -15.410810 -4.355929 1.190479 -3.202419 16.296127 -1.548563 7.634648 0.017122 -0.332402 17.374073 -3.448390 -9.565949 0.058441 -49.037502 -6.161094 -23.651068 141.472519 -88.911880 -142.152740 -4.696783 -5.920743 -14.215812 -0.000007 -0.000002 0.000020 -42.232006 -15.311810 12.323917 -17.186422 19.231682 -8.254872 24.967617 0.563035 -7.876434 110.093155 2.686884 -9.108665 54.317490 -1.251009 -4.134176 45.889362 3.531454 3.874939 72.749619 1.977044 0.499531 52.691181 1.543313 0.014945 53.990849 -2.598164 8.188294 64.128128 6.103316 0.640063 63.966423 1.574856 6.259063 62.761578 14.172627 6.110256 38.745579 4.430694 2.019330 45.077347 4.418373 0.569989 0.986812 7.179430 -0.055226 67.881432 24.684471 -8.223996 -177.719086 65.473145 -178.540802 46.186653 5.009200 -35.902973 -0.000002 0.000009 -0.000010 -25.323929 -18.097706 -10.430065 -1.105642 -10.805025 5.761216 -49.955616 -5.974501 -3.806361 -126.244385 -12.279913 -13.695245 -57.407940 -1.543767 -10.918544 -72.341423 -2.240605 -0.135763 -101.071091 -6.325396 -2.040395 -67.278526 -3.876495 -2.620836 -79.588234 0.960568 2.913451 -79.458923 -2.688754 1.905606 -77.280914 -4.308053 -1.271012 -81.235756 -1.058598 1.231149 -75.941383 3.417691 -6.978413 -68.177803 3.495831 -3.069073 8.930233 -14.061929 -14.947734 0.124680 0.556449 25.256739 0.623982 3.858059 -11.004600 -0.000008 -0.000001 -0.000000 -20.393974 -1.513919 -9.384647 -0.149730 -0.606754 27.726227 0.998711 2.613321 -18.093565 0.000004 0.000015 -0.000002
